# xmcd
#
# Track frame offsets: 
#        150
#        26327
#        81949
#        94371
#        112290
#        145764
#        166676
#        186973
#        206055
#
# Disc length: 2767 seconds
#
# Revision: 0
# Processed by: cddbd v1.5.2PL0 Copyright (c) Steve Scherf et al.
# Submitted via: ExactAudioCopy v0.99pb4
#
DISCID=7a0acd09
DTITLE=Woody Herman - Anglo American Herd (LP 1959)
DYEAR=1959
DGENRE=Big Band
TTITLE0=The Preacher
TTITLE1=Like Some Blues Man - Like
TTITLE2=From Pillar to Post
TTITLE3=The Four Brothers
TTITLE4=Opus de Funk
TTITLE5=Early Autumn
TTITLE6=Playgirl Stroll
TTITLE7=Woodchoppers Ball
TTITLE8=National Anthem
EXTD=
EXTT0=
EXTT1=
EXTT2=
EXTT3=
EXTT4=
EXTT5=
EXTT6=
EXTT7=
EXTT8=
PLAYORDER=
